<?xml version="1.0" encoding="UTF-8"?>
<svg id="Layer_1" data-name="Layer 1" xmlns="http://www.w3.org/2000/svg" viewBox="0 0 92.22 39.59">
  <defs>
    <style>
      .cls-1 {
        fill: none;
      }

      .cls-2 {
        fill: #191818;
      }

      .cls-3 {
        fill: #3c3939;
      }

      .cls-4 {
        fill: #fcfcfc;
      }
    </style>
  </defs>
  <g>
    <path class="cls-2" d="M69.85,31.83l-8.61.04-3.7-6.44c-.34-.59-.27-1.26.02-1.88l7.92-13.74-1.58-2.84,8.54-.04,14.36,24.85-8.54.08-4.23-7.25-4.18,7.22ZM73.9,24.39l-4.15-7.15-4.14,7.2,8.29-.05Z"/>
    <path class="cls-2" d="M39.76,8.44l2.07-.02-1.37,2.27c1.77-.07,3.13.69,3.77,2.15.47,1.06.56,2.21.49,3.36h-9.98c-1.06,0-1.94-.71-1.95-1.8l-.04-5.95,1.99-.02v5.12c0,.53.4.95.95.96l7.08.02c-.02-1.05-.87-2.15-2-2.17l-3.36-.05,2.36-3.87Z"/>
    <path class="cls-2" d="M22.69,10.75l1.77-.03-.02,3.48c0,.93-.84,1.97-1.85,1.98l-10.43.02c-1.04,0-1.84-.81-1.84-1.83l-.02-5.94h1.76s0,5.13,0,5.13c0,.61.43.96,1.03.96h8.81c.43.01.78-.33.78-.75v-3.02Z"/>
    <path class="cls-2" d="M15.68,25.04l-3.61-.05-.69,1.75c-.55.06-1.06.07-1.59-.01l3.09-8.51c.62-.21,1.25-.18,1.87-.01l3.06,8.52c-.44.04-1.13.18-1.51-.04-.36-.35-.42-.97-.61-1.64ZM15.12,23.55l-1.3-3.55-1.33,3.61,2.64-.06Z"/>
    <path class="cls-2" d="M40.7,26.73c-.14-.03-.19-.46-.19-.71-.91.88-2.12,1.17-3.32.63-1.06-.47-1.86-1.57-1.89-2.9s.59-2.4,1.61-2.97c1.14-.64,2.53-.54,3.6.48l.04-3.13c.49-.08.84-.08,1.38.01l.02,8.6c-.39.04-.73.09-1.25-.02ZM38.08,21.79c-1.22.32-1.57,1.55-1.28,2.51.31,1.01,1.36,1.47,2.34,1.23,1.04-.26,1.6-1.38,1.33-2.4s-1.22-1.65-2.39-1.34Z"/>
    <path class="cls-2" d="M34.27,26.6c-.21.29-.94.22-1.25.13l-.24-.72c-.58.75-1.47,1-2.47.86-1.61-.24-2.65-1.7-2.65-3.23s1.03-3,2.64-3.21c1.01-.14,1.89.09,2.48.85l.22-.74h1.26s0,6.06,0,6.06ZM30.53,21.77c-1.18.26-1.69,1.43-1.41,2.44s1.27,1.56,2.28,1.35,1.67-1.22,1.47-2.3c-.18-.97-1.1-1.76-2.34-1.48Z"/>
    <path class="cls-2" d="M51.83,26.59c-.15.32-1.11.3-1.3.04-.07-.09-.07-.38-.09-.47-.02-.09-.14-.16-.23-.02-.5.82-2.21,1.06-3.42.35-.88-.52-1.52-1.53-1.55-2.74s.54-2.27,1.42-2.86c1.26-.83,3.1-.53,3.55.26.08.15.21.07.23-.02.02-.11.03-.38.05-.48.35-.24.83-.19,1.34-.08v6.01ZM48.1,21.77c-1.18.26-1.7,1.42-1.41,2.44.27.97,1.26,1.56,2.29,1.34s1.65-1.21,1.46-2.29c-.17-.96-1.09-1.76-2.34-1.49Z"/>
    <path class="cls-2" d="M25.59,16.21c-.11-.53-.1-1.04-.02-1.66l4.22-.02c.21-.96-.38-1.92-1.4-2.17-.5-.12-.96-.16-1.5-.19-.1-.51-.08-.96-.04-1.46,2.54-.21,4.76,1.14,4.75,3.44v2.04s-6.01,0-6.01,0Z"/>
    <path class="cls-2" d="M26.38,22.65c-.73-1.09-2.08-1.15-2.9-.41s-.8,2.09,0,2.82,2.15.64,2.87-.34c.48.04,1.04.29,1.17.7-1.07,1.72-3.46,1.99-4.91.73s-1.52-3.56-.11-4.88,3.89-1.17,5.02.63c-.23.32-.52.53-1.13.76Z"/>
    <path class="cls-2" d="M45.83,18.16c-.28-.34-.2-.92-.12-1.42.87.09,1.6-.43,1.6-1.33l.02-4.69h1.74s-.02,4.85-.02,4.85c0,1.65-1.31,2.7-3.22,2.59Z"/>
    <path class="cls-2" d="M52.01,16.12c-.59.14-1.13.1-1.76.05v-7.75s1.75.02,1.75.02v7.67Z"/>
    <path class="cls-2" d="M21.53,21.91c-1.09-.02-1.89.57-1.9,1.63l-.03,3.22h-1.33s-.03-6.14-.03-6.14c.37-.12.74-.13,1.19-.06.17.03.26.44.3.75.47-.57,1.01-.91,1.79-.84v1.45Z"/>
    <polygon class="cls-2" points="44.47 26.73 43.08 26.77 43.06 20.55 44.47 20.54 44.47 26.73"/>
    <path class="cls-3" d="M51.18,32.18c.01-.76-.44-1.27-.66-1.88-.32.87-1.06.05-1.36.45-.16.2-.14.49-.05.62.35.53,1.5-.32,1.21.34-.15.36-1.09.53-1.51.02-.24-.29-.33-.77-.06-1.18.36-.55,1.69-.47,2.13-.31.2.07.32.46.49.89l.86-1.04c.02.89-.36,1.78-.96,2.53-.37.36-.8-.32-.11-.44Z"/>
    <path class="cls-3" d="M29.48,31.97c0,.5-.37.68-.66.79-.25.09-.86.11-.97-.27.28-.77-.51-.94-.31-1.65.1-.36.43-.75.9-.7l1.02.1v1.72ZM28.06,30.79c-.25.4.02.74.32.8.19.03.42-.05.53-.21.2-.28.11-.55-.04-.69-.2-.18-.62-.21-.81.09Z"/>
    <path class="cls-3" d="M15.38,30.24c.14,1.38.32,2.11-.58,2.51-.24.11-.93.05-.95-.22.07-.57-.03-.76-.31-1.2-.23-.36.14-.94.42-1.08.37-.19.8-.1,1.42,0ZM14.04,30.79c-.23.4.02.74.32.8.19.03.42-.06.53-.2.23-.29.1-.55-.05-.69-.18-.16-.61-.23-.8.09Z"/>
    <path class="cls-3" d="M10.47,30.95c-.62-.15-.66.65-.12.63.27,0,.45,0,.57-.03.21-.04.25.41.09.42l-1.51.03v-2.52s1.59.02,1.59.02c.04.4-.18.47-.44.43-.21-.03-.42-.02-.52,0-.13.03-.23.26-.15.38.2.33,1.46.06,1,.56-.05.05-.2.14-.52.07Z"/>
    <path class="cls-3" d="M33.18,29.94c.31.75-1.12-.5-1.7.26-.25.33-.23.93.09,1.2.38.33,1,.11,1.6-.19.12.93-1.01.96-1.56.74-.77-.3-.94-1.23-.61-1.85.37-.7,1.28-.86,1.97-.42.17.11.17.16.22.27Z"/>
    <path class="cls-3" d="M51.57,7.15c.24-.04.52-.04.58,0,.08.07.08.27.06.6l-2.22.06c.16-.82.68-1.77,1.05-1.89s1.01-.03,1.07.57c.03.27-.97-.09-1.03.29-.03.16.08.44.49.36Z"/>
    <path class="cls-3" d="M22.9,31.2c-.52-.07-.6.31-.12.46-.13.46-.79.52-1.23.33s-.67-.63-.54-1.18c.09-.37.51-.72,1.02-.7s.99.48.86,1.09Z"/>
    <path class="cls-3" d="M20.63,30.88c-.06.35-.11.56-.14.85-.05.48-1.06.47-1.41.04s-.33-1.16.27-1.55c.38-.25,1.42-.12,1.28.66Z"/>
    <path class="cls-3" d="M22.08,18.22c-.53-.03-.93-.03-1.47,0-.11-.52-.09-.96-.05-1.48h1.52s0,1.47,0,1.47Z"/>
    <path class="cls-3" d="M46.15,31.97l-1.33.04c-.42.01-.58-.43-.63-.69-.07-.38.02-.87.46-1.04.48-.19,1.04-.08,1.49-.04v1.73ZM44.82,30.66c-.34.24-.3.6-.13.78.24.26.56.24.73.11.29-.22.28-.59.11-.78-.18-.2-.46-.28-.71-.11Z"/>
    <path class="cls-3" d="M34.33,32.05c-.56-.07-.82-.46-.84-.9-.02-.51.32-.93.9-1.02.45-.07.88.1,1.04.35.23.37.23.88.03,1.19-.22.34-.66.44-1.13.38ZM35.15,30.94c-.17-.54-1.02-.47-1.17-.05-.16.44.2.68.48.74.35.08.87-.12.69-.69Z"/>
    <path class="cls-3" d="M41.5,30.06v1.89c-.44.07-1.13.25-1.49-.13-.3-.31-.33-1.34-.06-1.61.68-.13.04,1.1.53,1.4.1.06.31.04.42-.06.38-.37-.21-1.3.61-1.49Z"/>
    <path class="cls-2" d="M43.33,18.06c.55-.29,1.08,0,1.22.42s.05.9-.45,1.15c-.32.16-.82.06-1.05-.3s-.23-1,.28-1.27Z"/>
    <path class="cls-3" d="M47.85,31.99c-.14-.23.06-.84-.09-1.26-.06-.17-.4-.23-.56-.11-.44.32.19,1.53-.61,1.45l-.04-1.83c.36-.03.84-.18,1.21-.06.58.18.46.87.47,1.37v.39c.01.1-.33.14-.38.05Z"/>
    <path class="cls-2" d="M24.41,18.13c-.49.09-1.01.1-1.59.02-.07-.55-.06-.94,0-1.41.59-.02,1.02-.03,1.55.03l.04,1.35Z"/>
    <path class="cls-3" d="M18.47,32.04c-.71.12-.22-.73-.44-1.3-.07-.17-.39-.23-.55-.11-.46.33.18,1.54-.61,1.46v-1.86s1.32-.03,1.32-.03c.44.54.4,1.26.28,1.85Z"/>
    <path class="cls-3" d="M37.24,30.84c-.15-.48-.63-.27-.68-.11-.2.58.04,1.06-.11,1.25-.06.08-.41.04-.41-.07v-1.66c.38-.05,1-.2,1.36.05.48.33.41,1.36.1,1.82-.47-.33-.17-.97-.27-1.28Z"/>
    <path class="cls-3" d="M38.64,32.04l-.46-.15c-.18-.06-.04-.46.05-.4.27.18.71.21.74.03-.13-.38-.7-.35-.82-.5-.22-.37.02-.78.35-.87.3-.09.75-.06,1.01.39-.24.05-.51,0-.73.33.49.12.76.41.73.69-.04.34-.43.62-.87.48Z"/>
    <path class="cls-3" d="M42.43,31.93c-.16.1-.33.1-.48.04v-2.54c.13-.04.3-.06.47,0v2.5Z"/>
    <path class="cls-3" d="M44.02,31.85c-.24.3-.57.21-.71.11-.15-.12-.54-1.72-.55-1.63.01-.17.37-.58.53-.53.18.06.57.41.61.59-.09.15-.41.4-.43.56-.03.26.07.57.54.88Z"/>
    <path class="cls-3" d="M24.38,30.41c-1.18.65-.23,1.73-1.05,1.62-.11-.59-.1-1.26,0-1.82.48,0,.71-.08,1.06.2Z"/>
    <path class="cls-3" d="M12.08,30.55c.05-.09.04-.26.05-.36.33-.05.77-.03.92.26.2.39.16,1.47,0,1.56-.72.38.14-1.46-.97-1.45Z"/>
    <path class="cls-3" d="M25,30.77c.08.53.28,1.15-.36,1.37-.15-.71-.12-1.32-.02-1.97.37-.02.51.19.38.59Z"/>
    <path class="cls-3" d="M16.42,30.4c.12.34-.04.78,0,1.47,0,.11-.25.22-.47.12l.03-1.72c.08-.11.39.01.44.13Z"/>
    <path class="cls-3" d="M26.1,30.55c.05-.09.03-.25.04-.36.31-.05.78-.03.92.25.2.41.16,1.49,0,1.56-.58.25-.1-.96-.46-1.31-.11-.11-.35-.15-.5-.14Z"/>
    <path class="cls-2" d="M26.14,30.19c0,.1,0,.27-.04.36-.22.42-.15.99-.22,1.43-.55.35-.5-1.5-.24-1.75.11-.1.37-.02.5-.04Z"/>
    <path class="cls-2" d="M12.13,30.19c0,.1,0,.27-.05.36-.22.39-.13,1.04-.18,1.46-.58.29-.52-1.56-.26-1.78.11-.09.36-.02.49-.04Z"/>
    <polygon class="cls-4" points="73.9 24.39 65.61 24.44 69.76 17.24 73.9 24.39"/>
    <polygon class="cls-4" points="15.12 23.55 12.48 23.61 13.81 20 15.12 23.55"/>
    <path class="cls-4" d="M38.08,21.79c1.18-.31,2.14.37,2.39,1.34s-.29,2.14-1.33,2.4c-.98.25-2.04-.21-2.34-1.23-.29-.96.06-2.19,1.28-2.51Z"/>
    <path class="cls-4" d="M30.53,21.77c1.24-.27,2.17.52,2.34,1.48.2,1.07-.42,2.07-1.47,2.3s-2.01-.37-2.28-1.35.23-2.18,1.41-2.44Z"/>
    <path class="cls-4" d="M48.1,21.77c1.25-.27,2.16.53,2.34,1.49.19,1.08-.43,2.07-1.46,2.29s-2.02-.38-2.29-1.34c-.29-1.02.23-2.18,1.41-2.44Z"/>
    <path class="cls-4" d="M28.06,30.79c.19-.31.61-.27.81-.09.15.14.24.41.04.69-.11.15-.34.24-.53.21-.31-.06-.57-.4-.32-.8Z"/>
    <path class="cls-4" d="M14.04,30.79c.19-.32.62-.25.8-.09.16.14.29.4.05.69-.11.14-.34.23-.53.2-.3-.05-.56-.4-.32-.8Z"/>
    <path class="cls-4" d="M44.82,30.66c.25-.17.53-.09.71.11.17.19.17.56-.11.78-.17.13-.49.15-.73-.11-.17-.19-.21-.55.13-.78Z"/>
    <path class="cls-4" d="M35.15,30.94c.18.57-.34.77-.69.69-.28-.06-.63-.3-.48-.74s1-.49,1.17.05Z"/>
  </g>
  <rect class="cls-1" y="1.88" width="96.46" height="35.83"/>
</svg>