<?xml version="1.0" encoding="UTF-8"?>
<svg id="Layer_1" data-name="Layer 1" xmlns="http://www.w3.org/2000/svg" viewBox="0 0 147.58 57.3">
  <g id="xYWEky.tif">
    <path d="M69.1,14.37c-3.91,1.5-6.67,5.06-7.43,8.87-.9,4.49.62,8.87,3.96,11.75,1.56,1.34,2.33,3.06,2.05,5.11-.2,1.47-.42,3.55-1.33,4.13-10.74-4.3-15.67-16.8-10.52-27.25,3.39-6.88,10.45-11.2,18.09-11.14s14.67,4.4,18.04,11.52c2.63,5.65,2.45,12.21-.47,17.72s-8.34,9.38-14.6,10.34c-3.22,5.24-9.63,7.45-15.39,5.15,4.64-2.04,7.61-6.37,7.61-11.38V14.37ZM78.5,37.15c4.95-2.06,7.75-6.7,7.68-11.63s-3.06-9.31-7.69-11.17v22.79Z"/>
  </g>
</svg>