<?xml version="1.0" encoding="UTF-8"?>
<svg id="Layer_1" data-name="Layer 1" xmlns="http://www.w3.org/2000/svg" viewBox="0 0 147.58 57.3">
  <defs>
    <style>
      .cls-1 {
        fill: #5f2c10;
      }
    </style>
  </defs>
  <path class="cls-1" d="M12.08,25.07s0-.04,0-.09c-.01.11-.01.13,0,.09"/>
  <path class="cls-1" d="M34.82,15.91c.02-.08.01-.04,0,0,0,0,0,0,0,0"/>
  <path class="cls-1" d="M27.37,21.98c-1.58,2.59-3.47,5.31-6.16,6.84-1.92,1.09-4.53,1.6-6.51.46-.99-.57-1.7-1.48-2.1-2.53-.3-.79-.31-1.5-.2-2.1.41-2.22,2.62-3.27,3.71-3.92,1.38-.82,2.8-1.56,4.15-2.44.95-.62,2.13-1.41,2.48-2.56.13-.41.18-.85.24-1.28,0-.07.02-.15.03-.22.88,0,1.76-.04,2.64-.16.04,0,.16-.23.16-.23.12-.19.22-.39.33-.59s.21-.4.3-.6c.01-.03.1-.26.1-.26-3.74.52-7.48-.27-11.07-1.21-.57-.15-1.14-.3-1.71-.43-.27-.06-.67-.19-.96-.11-.2.06-.29.31-.39.48-.2.36-.4.73-.57,1.11-.04.08-.08.17-.08.26,0,.15.1.32.16.45.12.27.24.53.37.79.36.77.72,1.54.98,2.35.26.79.47,1.69.25,2.52-.03.1.07-.06.08-.07.11-.15.2-.34.29-.49.18-.33.42-.69.52-1.05.33-1.25-.2-2.61-.68-3.74-.1-.23-.2-.45-.3-.68.5.12,1,.26,1.5.39,2.13.55,4.28,1.03,6.48,1.21.46.04.93.06,1.39.07-.46.79-1.33,1.38-2.06,1.87-1.25.84-2.58,1.53-3.87,2.29-.59.34-1.22.7-1.81,1.1-1.05.72-3.68,2.86-3.12,7.92.13,1.15.53,2.23,1.39,3.14,1.65,1.74,4.27,1.74,6.4.91,3.31-1.28,5.55-4.48,7.32-7.39.16-.27.17-.73.22-1.04.04-.25.08-.49.1-.74,0-.06-.01-.27.01-.31M12.08,25.07s0,.03,0-.02c0,0,0,.01,0,.02"/>
  <path class="cls-1" d="M77.4,14.92c-.57-.61-4.27-2.88-5.64-3.78,0,0-1.11,1.8-.99,1.88.45.29.91.58,1.36.86-2.66,2.11-5.68,3.76-8.84,4.99-3.16,1.22-6.5,2.04-9.86,2.26-2.78.18-5.73-.03-8.27-1.22-1.05-.49-2.02-1.17-2.76-2.06-1.07-1.27-1.6-2.93-1.96-4.53-.09-.39-.16-.78-.23-1.17-.02-.12-.02-.29-.07-.4-.04-.09-.02-.07-.13-.08-.1-.01-.22,0-.32.02-.78.08-1.51.47-2.14.92-1.49,1.07-2.49,2.56-3.3,4.18-.15.3-.31.61-.41.93-.03.06-.05.12-.04.15.85,1.43,1.78,2.81,2.54,4.29.33.64.69,1.38.84,2.14-3.35,5.31-10.24,8.65-14.74,9.83l5.82-.14c2.26-1.2,4.38-2.71,6.18-4.54,1.27-1.29,2.36-2.76,3.16-4.38.02-.03.03-.07.04-.11.18-.32.36-.64.47-.98.4-1.21-.19-2.53-.72-3.59-.75-1.48-1.68-2.85-2.53-4.27.11-.13.21-.26.33-.38.55-.6,1.17-1.15,1.87-1.57.33-.19.67-.36,1.04-.47.16-.05.32-.09.49-.11.11-.02.48-.1.56-.03.04.04.05.28.06.34.03.17.06.35.09.52.08.42.16.83.27,1.25.37,1.49.91,2.99,1.93,4.16.74.84,1.67,1.49,2.68,1.97,2.42,1.14,5.22,1.37,7.87,1.24,3.21-.16,6.4-.88,9.43-1.97,3.2-1.15,6.26-2.73,8.99-4.77.33-.25.66-.51.99-.77.1-.08.19-.21.27-.35,0,0,0,.01,0,.02-1.26,3.53-.67,5.28,0,5.5.82.27,4.22-.45,5.06-1.69.61-.9,1.87-2.73.64-4.06M34.82,15.91s0,0,0,0c0,0,0,0,0-.01,0,0,0,0,0,.01M76.6,17.99c-1.36.71-3.21.99-3.86.82-.44-.11-1.38-1.2-.28-4.73,2.2,1.36,4.24,2.6,4.46,3.7,0,0,0,.02,0,.03-.11.06-.22.12-.32.18"/>
  <path class="cls-1" d="M45.84,24.99s-.39.6-.66,1.13c-.71-.37-1.42-.73-2.13-1.1-.07-.04-1.06,1.84-.99,1.88.76.39,1.51.78,2.27,1.17.04.02.39-.6.66-1.13.71.37,1.42.73,2.13,1.1.07.04,1.06-1.84.99-1.88-.76-.39-1.51-.78-2.27-1.17"/>
  <path class="cls-1" d="M16.9,24.57c.76.39,1.51.78,2.27,1.17.07.04,1.06-1.84.99-1.88-.76-.39-1.51-.78-2.27-1.17-.07-.04-1.06,1.84-.99,1.88"/>
  <path class="cls-1" d="M31.47,11.64c2.69-.91,5.4-1.77,8.09-2.68,2.78-.93,5.55-1.91,8.28-2.99,1.72-.68,3.43-1.4,5.13-2.16.11-.05.23-.37.28-.47.06-.11.12-.23.17-.35,0-.02.05-.15.06-.15-2.89,1.29-5.82,2.46-8.79,3.54-2.68.97-5.38,1.86-8.08,2.75-1.09.36-2.17.71-3.25,1.07.37-.28.72-.57,1.04-.91.5-.52.92-.92,1.25-1.77.34-.88-.2-1.8-.6-1.79-.87.01-1.05,1.85-.1,1.74,0,0,.4-.12.4-.12.17.39-.5,1.04-.87,1.37-.79.7-1.71,1.24-2.51,1.92-.13.11-.21.33-.28.47-.06.11-.12.23-.17.35-.01.03-.04.14-.06.15.01-.01.03-.02.04-.04,0,.02-.01.03-.02.04"/>
  <path class="cls-1" d="M29.17,25.5s.2-.29.18-.26c.13-.21.25-.44.36-.66.12-.22.23-.44.34-.67.04-.08.12-.2.11-.29-.24-5.38-.47-10.76-.71-16.14-.07-1.54-.14-3.09-.2-4.63,0,0-.2.29-.18.26-.13.21-.25.44-.36.66s-.23.44-.34.67c-.04.08-.12.2-.11.29.24,5.38.47,10.76.71,16.14.07,1.54.14,3.09.2,4.63"/>
  <path class="cls-1" d="M62.99,26.12c-1.43.37-2.85.75-4.28,1.12-.1.02-.23.37-.27.46-.03.06-.18.47-.22.48,5.05-1.32,10.1-2.64,15.14-3.96,1.43-.37,2.85-.75,4.28-1.12.1-.02.23-.38.27-.46.03-.06.18-.47.22-.48-5.05,1.32-10.1,2.64-15.14,3.96"/>
  <path class="cls-1" d="M10.36,35.87h.36c1.99,4,3.92,7.8,5.89,11.38,2.03-3.6,4.09-7.4,6.2-11.38h.27c.46,4.44,1.03,9.3,1.66,14.58-.31-.06-.63-.06-.94-.06s-.63,0-.94.06c-.4-5.64-.82-9.12-1.09-10.46-3.1,5.2-4.78,8.78-5.36,10.44h-.29c-.38-1.3-1.09-2.72-1.99-4.38l-3.27-6.03c-.71,5.01-1.01,8.49-1.03,10.44-.25-.06-.5-.06-.78-.06s-.54,0-.84.06c.61-2.66,1.28-7.54,2.16-14.58"/>
  <path class="cls-1" d="M27.9,45.05v-1.74c0-2.89,0-5.26-.13-7.17.31.04.63.06.94.06.34,0,.65-.02.99-.06-.08,1.11-.11,2.47-.11,4.11v6.52c0,1.4,0,2.64.11,3.69-.31-.06-.63-.06-.94-.06s-.65,0-.99.06c.11-1.63.13-3.42.13-5.41"/>
  <path class="cls-1" d="M33.66,43.31c0-2.91-.04-5.3-.15-7.17.4.02.73.06.96.06.9,0,2.01-.06,3.35-.06,3.14,0,4.71,1.07,4.71,3.35,0,1.95-1.47,3.37-4.19,3.88,1.57,2.1,3.48,4.44,5.62,7.08-.42-.06-.84-.06-1.26-.06s-.82,0-1.22.06c-.92-1.34-1.78-2.56-2.62-3.65l-2.28-2.93c-.23-.31-.46-.46-.84-.46-.13,0-.25.02-.4.04v3.84c0,.94.04,1.99.1,3.16-.31-.06-.63-.06-.96-.06-.31,0-.65,0-.99.06.13-2.07.15-4.44.15-7.15M36.05,42.83c3.12,0,4.67-1.01,4.67-3.08,0-1.89-1.19-2.83-3.6-2.83-.4,0-.96.02-1.63.06-.11.77-.13,1.51-.13,2.14v3.69c.25.02.5.02.69.02"/>
  <path class="cls-1" d="M50.47,35.87h.4c2.03,5.09,4.06,9.95,6.08,14.58-.34-.06-.67-.06-1.03-.06s-.71,0-1.07.06c-.46-1.42-1.05-3.02-1.78-4.76l-.36-.84c-.86-.04-1.72-.04-2.58-.04s-1.74,0-2.6.04c-.8,1.82-1.49,3.69-2.16,5.6-.21-.06-.46-.06-.69-.06s-.46,0-.69.06c2.22-4.86,4.4-9.72,6.48-14.58M49.48,43.96c.73,0,1.68-.02,2.81-.02l-.36-.92c-.13-.36-.73-1.78-1.8-4.27l-2.24,5.2c.34,0,.86.02,1.59.02"/>
  <path class="cls-1" d="M65.72,50.7c-4.84,0-7.79-2.83-7.79-7.19,0-4.61,3.23-7.65,8.3-7.65,2.03,0,3.77.46,5.15,1.34-.21.63-.38,1.24-.5,1.84-1.11-1.61-2.72-2.39-4.99-2.39-3.46,0-5.89,2.54-5.89,6.66s2.51,6.6,6.14,6.6c1.19,0,2.28-.23,3.39-.71.02-.71.04-1.38.04-2.05,0-.92-.02-1.82-.06-2.68.29.04.59.06.88.06s.59-.02.88-.06c-.04,1.49-.06,2.58-.06,3.29s.02,1.42.08,2.05c-1.99.59-3.9.88-5.57.88"/>
  <path class="cls-1" d="M74.38,43.14c0-2.72-.04-5.05-.15-7,.8.04,1.63.06,2.56.06s2.54-.02,4.8-.06c0,.19-.02.4-.02.61,0,.19.02.4.02.61-1.68-.15-3.35-.21-4.97-.21h-.52v5.26h.38c1.07,0,2.58-.04,4.55-.17-.02.21-.04.44-.04.65,0,.19.02.4.04.59-.92-.17-2.24-.17-3.96-.17h-.96v6.12h.54c1.05,0,2.75-.06,5.03-.23,0,.21-.02.42-.02.63s.02.42.02.63c-1.13-.04-2.33-.06-3.58-.06s-2.54.02-3.88.06c.13-1.93.17-4.36.17-7.31"/>
  <path class="cls-1" d="M138.87,37.93c-.76.14-1.51.29-2.27.44-.01,0-.03,0-.04,0h0c-.02-.06-.03-.12-.05-.19,0-.02-.01-.05-.02-.07.24-2.19.21-4.48-.12-6.41,0-.02,0-.03,0-.05h0c-.01-.07-.02-.14-.04-.22.02,0,.05,0,.07,0,.07,0,.13-.02.2-.03.37-.08.73-.24,1.05-.48.63-.47,1.15-1.18,1.65-1.79,1.37-1.62,2.66-3.31,4-4.95,0,0-2.14-1.66-2.26-1.51-.49.6-.97,1.19-1.45,1.8,0,.01-.02.02-.02.03h0c-.05-.03-.11-.07-.16-.11h0s-.04-.03-.05-.04c-1.22-1.83-2.72-3.56-4.21-4.84l-.04-.03c-.06-.05-.11-.09-.17-.14.02-.02.03-.04.05-.05.04-.05.09-.1.13-.15.24-.3.41-.65.5-1.04.18-.77.12-1.64.12-2.43,0-2.12-.09-4.25-.12-6.37,0-.01-2.7.11-2.7.3,0,.77.02,1.54.04,2.31,0,.02,0,.03,0,.04-.07,0-.13.01-.2.02-.02,0-.05,0-.07,0-2.12-.62-4.37-.98-6.33-1-.02,0-.04,0-.06,0h0c-.07,0-.14,0-.22,0v-.07c0-.07,0-.13,0-.2-.01-.38-.11-.76-.29-1.12-.36-.71-.97-1.33-1.47-1.94-1.36-1.63-2.8-3.19-4.18-4.8,0,0-2,1.82-1.88,1.97.5.58,1.01,1.16,1.52,1.74,0,0,.02.02.03.03-.04.05-.09.09-.14.14l-.05.05c-2.02.89-3.98,2.06-5.49,3.3-.01.01-.03.02-.04.03-.06.05-.11.09-.17.14-.01-.02-.03-.04-.04-.06-.04-.05-.08-.1-.13-.15-.25-.28-.57-.51-.94-.67-.73-.31-1.6-.4-2.37-.54-2.09-.37-4.2-.64-6.29-.99-.01,0-.36,2.68-.17,2.71.76.13,1.52.24,2.28.36h.04c0,.07,0,.14-.01.2,0,.02,0,.05,0,.07-.98,1.98-1.73,4.14-2.08,6.06,0,.02,0,.04,0,.05-.01.07-.03.14-.04.22-.02,0-.05-.01-.07-.02-.07-.02-.13-.03-.2-.04-.38-.05-.77-.03-1.15.09-.76.23-1.48.72-2.17,1.11-1.84,1.06-3.63,2.21-5.46,3.29,0,0,1.45,2.29,1.61,2.19.66-.39,1.32-.79,1.98-1.19.01,0,.02-.01.03-.02h0c.04.05.08.11.11.16.01.02.03.04.04.06.52,2.14,1.34,4.28,2.3,5.98.01.02.02.03.03.05h0c.04.06.07.12.11.19-.02.01-.04.02-.06.03-.06.03-.12.06-.17.1-.32.2-.61.47-.82.81-.43.66-.67,1.5-.94,2.24-.73,1.99-1.36,4.02-2.07,6.02,0,0,2.58.82,2.64.64.25-.73.5-1.46.75-2.19,0-.01,0-.03.01-.04h0c.06.02.13.03.19.05.02,0,.04.01.07.02,1.78,1.31,3.77,2.42,5.6,3.1h0s.03.01.04.02c.07.03.14.05.21.08,0,.02-.02.04-.03.07-.02.06-.05.12-.07.19-.12.36-.16.75-.11,1.15.09.79.45,1.58.72,2.33.73,1.99,1.54,3.96,2.29,5.94,0,.01,2.5-1.03,2.44-1.2-.27-.72-.55-1.44-.83-2.16,0-.01,0-.03-.01-.04.06-.03.12-.06.18-.08.02-.01.04-.02.06-.03,2.2-.14,4.45-.57,6.29-1.22.02,0,.03-.01.05-.02.07-.02.14-.05.2-.08,0,.02.01.05.02.07.02.06.04.13.07.19.14.35.36.68.65.95.58.54,1.36.92,2.04,1.32,1.84,1.06,3.72,2.04,5.57,3.08,0,0,1.26-2.4,1.09-2.49-.67-.38-1.35-.75-2.02-1.12l-.04-.02h0c.03-.06.05-.12.08-.18,0-.02.02-.04.03-.06,1.59-1.52,3.04-3.3,4.03-4.98.01-.01.02-.03.03-.04h0c.04-.07.07-.13.11-.19.02.01.04.03.06.04.05.04.11.07.17.1h0c.34.18.71.29,1.11.31.79.05,1.64-.17,2.41-.31,2.09-.37,4.17-.83,6.25-1.22.01,0-.58-2.64-.76-2.61M133.38,39.01c-.62.12-1.23.22-1.85.32-.11.02-.21.03-.32.05-.05,0-.11.01-.16.02-.05,0-.1.01-.14.02,0,0-.01,0-.02,0-.05,0-.11,0-.16.01-.04,0-.08,0-.12,0,0,0,0,0,0,0h-.01c-.12,0-.24,0-.35,0-.04,0-.09,0-.13,0-.02,0-.05,0-.07,0-.04,0-.09,0-.13-.01-.04,0-.09-.01-.13-.02-.05,0-.1-.02-.14-.03,0,0,0,0-.01,0h0s-.03,0-.05-.01c-.02,0-.04-.01-.07-.02-.02,0-.04-.01-.06-.02-.02,0-.04-.01-.06-.02-.02,0-.04-.02-.06-.02-.03-.01-.07-.03-.1-.04-.02,0-.03-.01-.05-.02-.02,0-.03-.02-.05-.03-.01,0-.03-.01-.04-.02-.05-.03-.1-.05-.15-.08-.03-.02-.06-.04-.1-.06-.01,0-.02-.02-.03-.02,0-.03.02-.05.03-.08.03-.11.07-.22.1-.32.07.09.14.18.19.28,0,0,0,0,0,0,.35.2.75.3,1.24.3.1,0,.2,0,.31-.01.27-1.01.24-1.88-.16-2.53-.05-.08-.11-.16-.18-.24-.06-.07-.12-.13-.19-.2-.07-.06-.14-.12-.21-.18-.39-.31-.9-.58-1.46-.83-.08-.04-.17-.08-.25-.11-.34-.15-.7-.3-1.06-.44-1.94-.79-5.94-1.9-5.94-1.9l-1.71,1.93c1.27.34,4.5,1.43,5.69,1.89.7.27,1.59.59,2.41,1.03.1.05.2.11.29.17h0c.02.12.04.24.07.36.17.81.42,1.64.74,2.39.09.2.19.39.32.56.06.08.12.15.2.22-.04.09-.09.17-.14.25-.06.1-.13.2-.21.29-.64.77-1.58,1.82-2.66,2.83-.01.01-.02.02-.03.04.84-3.53.28-5.97-.74-6.23-.55-.15-1.34.06-1.87.17-.73.15-1.45.38-2.13.69.27.56.49,1.11.6,1.62.02.09.03.18.05.27.15-.03.29-.07.44-.1.54-.11,1.22-.27,1.77-.17.36.07.62.45.78.75.35.66.44,1.46.45,2.2.01,1.04-.15,2.07-.39,3.08-.88-.48-1.76-.96-2.63-1.44-.55-.31-1.09-.62-1.63-.95-.18-.11-.37-.23-.54-.35-.08-.05-.16-.11-.24-.17-.35-.26-.66-.57-.87-.96-.07-.12-.13-.25-.17-.39-.01-.03-.02-.07-.03-.11,0-.01,0-.03,0-.04.02-.02.05-.03.07-.05.09-.06.19-.12.28-.18,0,.12-.01.23-.03.34h0c.19.52.54.89,1,1.22.85-.6,1.4-1.29,1.5-2.04.01-.1.02-.2.01-.3,0-.09,0-.18-.02-.28-.01-.09-.03-.18-.05-.27-.11-.49-.32-1.02-.59-1.57-.04-.08-.08-.16-.12-.24-.17-.34-.35-.68-.53-1.02-.98-1.85-3.33-5.27-3.33-5.27l-2.55.37c.75,1.08,2.53,3.99,3.15,5.1.36.65.84,1.47,1.18,2.34h0c.04.11.08.21.12.32h0c-.06.11-.12.21-.18.32-.39.73-.73,1.52-.97,2.3-.06.21-.1.42-.11.64,0,.1,0,.2,0,.3-.08.04-.17.07-.26.1-.11.04-.23.07-.35.09-.98.17-2.38.38-3.86.46-.02,0-.03,0-.05,0,2.92-2.16,4.05-4.39,3.44-5.25-.33-.46-1.07-.81-1.55-1.07-.66-.35-1.35-.64-2.07-.84-.15.6-.33,1.16-.58,1.63-.04.08-.09.16-.14.24.14.06.27.14.4.21.48.26,1.11.58,1.46,1.01.23.28.19.74.12,1.07-.16.74-.6,1.4-1.07,1.97-.66.8-1.45,1.49-2.28,2.11-.36-.93-.73-1.86-1.08-2.8-.22-.59-.44-1.17-.64-1.77-.07-.21-.14-.41-.19-.62-.03-.09-.05-.19-.07-.28-.1-.43-.14-.86-.05-1.29.03-.14.07-.27.12-.41.01-.03.03-.07.04-.1,0-.01.01-.03.02-.04.03,0,.06,0,.08.01.11.01.22.03.33.05-.08.09-.16.17-.24.24,0,0,0,0,0,0-.19.51-.15,1.02-.01,1.57,1.04.09,1.9-.09,2.46-.6.07-.07.14-.14.21-.22.06-.07.11-.15.16-.22.05-.08.09-.16.14-.24.23-.44.41-.99.56-1.58.02-.09.04-.17.07-.26.09-.37.17-.74.25-1.12.44-2.04.84-6.18.84-6.18l-2.2-1.35c-.12,1.31-.62,4.68-.87,5.93-.14.73-.3,1.67-.6,2.55-.03.11-.07.21-.11.32,0,0,0,0,0,0-.11.04-.23.08-.34.13-.77.31-1.54.7-2.22,1.14-.18.12-.35.26-.49.42-.07.07-.13.15-.19.23-.09-.03-.18-.06-.27-.09-.11-.04-.21-.1-.32-.15-.87-.5-2.07-1.24-3.25-2.13-.01,0-.03-.02-.04-.03,3.62.22,5.93-.76,6.01-1.81.05-.57-.29-1.31-.49-1.81-.28-.69-.63-1.36-1.05-1.97-.5.36-1,.67-1.49.88-.08.03-.17.07-.26.09.06.14.12.28.17.42.2.51.48,1.15.47,1.71,0,.36-.33.69-.6.89-.59.46-1.36.68-2.09.82-1.02.19-2.07.21-3.1.15.32-.95.64-1.9.97-2.84.2-.59.42-1.18.65-1.77.08-.2.16-.4.25-.59.04-.09.08-.18.13-.26.2-.39.44-.75.79-1.02.11-.09.23-.17.36-.24.03-.02.06-.04.1-.05.01,0,.02,0,.04-.02.02.02.04.04.06.06.08.08.15.17.23.25-.12.02-.23.03-.34.03h0c-.47.27-.77.69-1.02,1.2.74.73,1.51,1.15,2.27,1.12.1,0,.2-.01.3-.03.09-.02.17-.04.26-.07.09-.03.17-.06.26-.09.46-.19.95-.49,1.44-.85.07-.05.15-.11.22-.16.3-.22.61-.46.91-.7,1.65-1.28,4.61-4.2,4.61-4.2l-.82-2.45c-.93.93-3.49,3.18-4.47,3.98-.58.47-1.31,1.08-2.1,1.57-.1.06-.19.12-.29.17h0c-.11-.04-.23-.08-.35-.12h0c-.79-.26-1.63-.45-2.44-.55-.22-.03-.43-.03-.64,0-.1.01-.2.03-.29.06-.06-.08-.1-.16-.15-.24-.05-.1-.1-.21-.14-.32-.34-.94-.78-2.28-1.12-3.72,0-.02,0-.03-.01-.05,2.64,2.5,5.03,3.22,5.77,2.47.4-.41.61-1.19.79-1.71.24-.71.39-1.44.47-2.19-.62-.05-1.2-.13-1.7-.29-.09-.03-.18-.06-.26-.09-.04.15-.09.29-.14.43-.17.52-.38,1.19-.74,1.61-.24.28-.69.31-1.03.3-.75-.03-1.48-.35-2.13-.71-.9-.51-1.72-1.17-2.47-1.88.86-.52,1.71-1.04,2.57-1.55.54-.32,1.08-.63,1.63-.93.19-.1.38-.2.57-.29.09-.04.18-.08.27-.12.4-.17.82-.28,1.26-.27.14,0,.28.02.43.05h0s.07.02.11.03c.01,0,.03,0,.04.01,0,.03,0,.06,0,.09,0,.11,0,.22.01.33-.1-.06-.19-.13-.28-.2,0,0,0,0,0,0-.12-.02-.24-.03-.36-.03-.41,0-.79.12-1.19.29.1,1.04.42,1.85,1.02,2.32.08.06.16.12.25.16.08.04.16.08.25.12.08.04.17.07.26.1.47.15,1.04.23,1.65.28.09,0,.18.01.27.02.38.02.76.04,1.14.05,2.09.08,6.23-.25,6.23-.25l.95-2.4c-1.31.11-4.72.2-5.99.17-.75-.01-1.7,0-2.61-.15-.11-.01-.22-.03-.33-.05h0c-.06-.11-.12-.21-.19-.32-.44-.7-.96-1.39-1.51-1.99-.15-.16-.32-.3-.5-.41-.08-.06-.17-.1-.26-.14,0-.1.02-.19.04-.28.03-.12.06-.23.1-.34.34-.94.87-2.25,1.53-3.57,0-.02.01-.03.02-.05.42,3.61,1.78,5.7,2.83,5.6.57-.05,1.24-.52,1.7-.8.64-.39,1.23-.85,1.76-1.38-.44-.43-.84-.87-1.12-1.31-.05-.08-.1-.16-.14-.24-.13.08-.25.16-.38.24-.47.28-1.05.67-1.6.76-.36.06-.73-.21-.99-.43-.56-.5-.91-1.22-1.17-1.91-.37-.97-.56-2-.69-3.03.99.15,1.98.3,2.97.46.62.1,1.24.21,1.85.33.21.04.42.09.63.14.1.02.19.05.28.08.42.13.81.31,1.14.6.1.09.2.2.3.31.02.03.05.06.07.09,0,0,.02.02.02.03-.02.02-.04.05-.05.07-.07.09-.14.18-.2.26-.04-.11-.07-.22-.09-.33,0,0,0,0,0,0-.35-.42-.81-.64-1.35-.8-.59.85-.87,1.69-.71,2.43.02.1.05.19.09.29.03.08.07.17.12.25.04.08.09.16.14.24.26.42.65.85,1.09,1.27.06.06.13.13.2.19.27.26.56.52.84.77,1.55,1.4,4.93,3.81,4.93,3.81l2.27-1.23c-1.07-.75-3.74-2.88-4.7-3.72-.56-.49-1.29-1.1-1.91-1.79-.08-.08-.15-.17-.22-.26h0c.02-.12.04-.24.06-.36.12-.82.16-1.68.12-2.5-.01-.22-.05-.43-.12-.64-.03-.1-.06-.19-.11-.28.07-.07.14-.13.21-.19.09-.07.19-.14.29-.2.87-.5,2.11-1.17,3.47-1.75.01,0,.03-.01.05-.02-2,3.03-2.3,5.51-1.43,6.11.47.32,1.28.4,1.82.48.74.11,1.49.14,2.24.08-.06-.62-.08-1.21-.01-1.73.01-.09.03-.18.04-.27,0,0-.02,0-.03,0-.04,0-.08,0-.12-.01-.1-.01-.2-.03-.3-.04-.54-.08-1.24-.16-1.72-.45-.31-.18-.43-.63-.47-.96-.1-.75.09-1.52.33-2.22.35-.98.85-1.89,1.42-2.76.66.75,1.32,1.5,1.98,2.26.41.47.81.96,1.2,1.45.03.04.07.09.1.13.03.04.07.09.1.13.03.04.07.09.1.13.03.04.05.07.08.12.06.08.11.16.17.24.01.02.03.05.05.07.01.02.03.05.04.07,0,.01.01.02.02.04,0,.01.01.02.02.03.04.07.08.15.12.22.01.02.02.04.03.06.01.02.02.04.03.07,0,.01.01.03.02.05.01.02.02.05.03.07l.02.05s0,0,0,0c0,0,0,.02,0,.03,0,.01,0,.02.01.03t0,0s.02.05.02.08c0,.02.01.05.02.08,0,.03.02.05.02.08,0,.02,0,.04.01.06,0,.03.01.07.02.1h0s0,.02,0,.03c0,.01,0,.02,0,.03h0s0,.01,0,.02c0,.02,0,.04,0,.06,0,.02,0,.03,0,.05,0,.03,0,.05,0,.08,0,.06,0,.11,0,.17h0s0,.07,0,.11c0,.01,0,.03,0,.04-.03,0-.06.01-.08.02-.11.03-.22.05-.33.07.04-.11.09-.21.15-.31,0,0,0,0,0,0,0-.55-.21-1.01-.52-1.48-1,.27-1.75.73-2.11,1.41-.04.09-.08.18-.12.28-.03.08-.05.17-.08.27-.02.09-.03.18-.05.27-.07.49-.05,1.07.01,1.68,0,.09.02.18.03.27.04.37.1.76.15,1.14.28,2.07,1.33,6.09,1.33,6.09l2.53.52c-.34-1.27-1.01-4.61-1.21-5.87-.12-.74-.29-1.67-.31-2.6,0-.11,0-.23,0-.34t0,0c.1-.08.19-.16.28-.24.62-.55,1.21-1.18,1.7-1.83.13-.18.24-.36.32-.56.04-.09.07-.19.1-.28.09,0,.19,0,.28,0,.12,0,.23.02.35.04.99.17,2.37.46,3.78.89.02,0,.03,0,.05.01-3.48,1.04-5.31,2.74-5.03,3.76.15.55.72,1.13,1.09,1.53.49.56,1.05,1.07,1.66,1.5.35-.51.71-.98,1.1-1.33.07-.06.14-.12.21-.18-.1-.11-.2-.22-.3-.33-.36-.41-.84-.92-1.03-1.45-.12-.34.08-.76.26-1.04.4-.64,1.04-1.11,1.68-1.48.89-.53,1.87-.9,2.86-1.2.02,1,.05,2,.06,3,.01.63,0,1.26,0,1.88,0,.07,0,.14,0,.21,0,.04,0,.07,0,.11,0,.02,0,.04,0,.05,0,.04,0,.08,0,.12,0,.05,0,.09,0,.14,0,0,0,.01,0,.02,0,.05,0,.1-.01.15,0,.05,0,.1-.02.14h0s0,.08-.01.12c0,.05-.01.09-.02.14,0,.02,0,.05-.01.07,0,.04-.02.08-.03.12,0,.03-.02.06-.02.1,0,.02-.01.04-.02.06,0,.02-.01.04-.02.06-.01.04-.02.08-.04.12-.01.03-.02.05-.03.08-.01.03-.03.06-.04.1,0,.01-.01.03-.02.05,0,.02-.01.03-.02.05-.03.06-.06.12-.1.18h0c-.04.06-.08.13-.12.18,0,0,0,0,0,0-.02.02-.03.05-.05.07-.02.02-.03.04-.05.06,0,0,0,0-.01.01t0,0s0,0,0,.01h0s-.05.06-.08.08c0,0-.02.02-.03.03-.02-.01-.05-.03-.07-.04-.1-.05-.2-.1-.3-.16.1-.05.2-.1.31-.14,0,0,0,0,0,0,.35-.42.49-.91.55-1.47-.94-.44-1.81-.56-2.52-.28-.09.04-.18.08-.27.14-.08.05-.15.1-.23.16-.07.05-.14.11-.21.17-.37.34-.72.79-1.07,1.29-.05.08-.1.15-.15.23-.21.31-.41.64-.62.97-1.11,1.77-2.9,5.52-2.9,5.52l1.6,2.02c.56-1.19,2.19-4.18,2.84-5.28.39-.64.86-1.47,1.43-2.19.07-.09.14-.18.21-.26h0c.12,0,.24,0,.37,0h0c.83-.03,1.68-.13,2.48-.31.21-.05.42-.12.6-.22.09-.05.18-.1.26-.15.08.05.15.11.22.18.09.08.17.16.25.26.64.77,1.52,1.88,2.32,3.11,0,.01.02.03.03.04-3.33-1.44-5.83-1.31-6.27-.35-.24.52-.17,1.33-.15,1.87.02.75.12,1.49.31,2.22.6-.17,1.18-.29,1.7-.31.05,0,.1,0,.16,0,.04,0,.08,0,.12,0,0-.02,0-.05,0-.07,0,0,0-.02,0-.03,0-.04,0-.09,0-.13,0-.08,0-.15,0-.22-.01-.54-.05-1.25.14-1.77.13-.34.55-.53.87-.64.72-.23,1.51-.18,2.24-.06,1.02.17,2.01.51,2.97.92-.63.78-1.25,1.56-1.88,2.34-.39.49-.8.97-1.22,1.44-.14.16-.29.32-.44.47-.04.04-.08.08-.12.12-.03.03-.06.06-.09.09-.02.02-.04.04-.06.05-.02.02-.04.03-.05.05h0s-.09.08-.13.11c-.03.02-.06.05-.1.07-.01,0-.02.02-.03.03,0,0,0,0-.01,0-.01,0-.02.02-.03.02-.03.02-.06.04-.08.06-.04.03-.09.06-.14.09-.02.01-.05.03-.08.04-.03.01-.05.03-.08.04-.02.01-.04.02-.06.03-.05.02-.1.04-.15.06-.03,0-.05.02-.08.03,0,0,0,0,0,0-.02,0-.05.02-.07.02-.01,0-.02,0-.03,0,0,0,0,0,0,0,0,0-.02,0-.02,0-.03,0-.06.01-.09.02-.02,0-.03,0-.05.01,0,0,0,0,0,0-.02,0-.03,0-.05,0-.03,0-.06,0-.08.01h0s-.03,0-.05,0c-.02,0-.04,0-.06,0-.01,0-.03,0-.04,0-.01-.03-.02-.05-.03-.08-.04-.1-.09-.21-.13-.31.11.02.22.05.33.09,0,0,0,0,0,0,.54-.1.96-.38,1.37-.77-.44-.94-1.03-1.6-1.75-1.83-.09-.03-.19-.05-.29-.07-.09-.01-.18-.02-.27-.03-.09,0-.18,0-.27,0-.5.02-1.06.14-1.65.31-.09.03-.17.05-.26.08-.36.11-.73.23-1.09.34-1.99.64-5.77,2.36-5.77,2.36l-.07,2.58c1.19-.55,4.36-1.8,5.57-2.21.71-.24,1.6-.57,2.5-.76.11-.02.22-.04.33-.06,0,0,0,0,0,0,.09.08.19.16.28.23.65.51,1.37.98,2.1,1.35.2.1.4.17.61.22.1.02.2.04.29.05.02.09.04.18.05.28.02.12.03.23.03.35,0,1-.04,2.41-.22,3.88,0,.01,0,.03,0,.05-1.62-3.25-3.62-4.75-4.58-4.3-.52.24-.99.91-1.32,1.34-.46.58-.86,1.22-1.19,1.9.56.26,1.09.53,1.5.85.07.05.14.11.21.17.09-.12.18-.24.27-.36.34-.43.76-.99,1.25-1.26.32-.18.76-.06,1.07.07.7.28,1.27.84,1.75,1.4.68.79,1.21,1.68,1.68,2.61-.98.19-1.96.39-2.94.58"/>
</svg>