<?xml version="1.0" encoding="UTF-8"?>
<svg id="Layer_1" data-name="Layer 1" xmlns="http://www.w3.org/2000/svg" viewBox="0 0 147.58 57.3">
  <defs>
    <style>
      .cls-1 {
        fill: #c89457;
      }

      .cls-2 {
        fill: #1c468a;
      }
    </style>
  </defs>
  <path class="cls-1" d="M83.61,19.43c-2.64.87-5.3,1.38-7.96,1.52-.79-.46-1.39-1.21-1.65-2.11l-.21-.73-.21.73c-.25.87-.82,1.61-1.58,2.07-2.68-.19-5.36-.76-8.02-1.71l.33-.92c2.55.9,5.11,1.45,7.68,1.65-2.1-1.39-4.21-2.98-6.29-4.76l.63-.74c1.99,1.7,4.01,3.23,6.01,4.57-1.18-2.08-2.39-4.5-3.74-7.47l.89-.4c1.39,3.05,2.63,5.51,3.83,7.61v-9.04h.98v9.04c1.2-2.1,2.44-4.56,3.83-7.61l.89.4c-1.35,2.97-2.57,5.39-3.74,7.47,2.01-1.34,4.02-2.87,6.01-4.57l.63.74c-2.11,1.8-4.24,3.41-6.36,4.81,2.59-.13,5.18-.62,7.75-1.48l.31.93Z"/>
  <path class="cls-1" d="M71.09,27.32l.65.73c1.32-1.16,2.55-1.16,3.87,0l.64-.73c-1.69-1.48-3.47-1.48-5.16,0"/>
  <path class="cls-1" d="M79.87,25.32v.98h-.15c-.96,0-1.9-.16-2.79-.48-2.16-.78-4.41-.77-6.68.03-.85.3-1.76.45-2.7.45v-.98c.83,0,1.64-.14,2.38-.4,1.23-.44,2.46-.66,3.68-.67l.18.64.18-.64c1.11.03,2.21.24,3.29.64.78.28,1.61.43,2.46.43h.15Z"/>
  <path class="cls-1" d="M72.85,22.82c-.86.07-1.73.26-2.6.57-.85.3-1.76.45-2.7.45h-.09c-1.15,0-2.01-.43-2.56-1.29l.82-.52c.38.59.95.86,1.81.84h.01c.83,0,1.64-.13,2.38-.4.62-.22,1.24-.38,1.85-.5.41.21.77.5,1.07.84"/>
  <path class="cls-1" d="M82.36,22.57c-.61.84-1.44,1.27-2.47,1.27h-.17c-.96,0-1.9-.16-2.79-.48-.73-.26-1.47-.44-2.22-.52.29-.34.63-.62,1.03-.83.51.1,1.02.25,1.53.43.78.28,1.61.43,2.46.43h.17c.72,0,1.25-.27,1.68-.86l.79.57Z"/>
  <path class="cls-2" d="M75.66,21.51l-.4.11c-.19.05-.36.13-.52.24-.34.22-.61.55-.77.93-.02.06-.04.12-.06.18l-.11.4-.11-.4c-.02-.07-.04-.13-.07-.19-.16-.39-.44-.72-.79-.94-.15-.09-.32-.17-.49-.22l-.4-.11.4-.11c.29-.08.55-.23.76-.42.28-.24.48-.57.59-.93l.11-.4.11.4c.11.37.32.7.6.95.21.18.47.33.75.4l.4.11Z"/>
  <path class="cls-2" d="M43.69,46.13c.05.12.13.23.22.35.42.55,1,.76,1.46.66.63-.14.77-.71.55-1.37-.18-.53-.75-1.12-1.36-1.62-.42-.35-.93-.72-1.07-1.35-.27-1.16.74-1.72,1.26-1.79.75-.11,1.36.15,1.67.47l-.37.37c-.35-.35-.75-.54-1.09-.54-.15,0-.3.04-.41.12-.22.15-.28.44-.27.68.05.6.5.91,1.03,1.36,1.35,1.16,1.58,1.79,1.54,2.53-.03.46-.3.87-.65,1.16-.38.31-.86.43-1.34.44-.75.02-1.39-.33-1.74-.87l.6-.6Z"/>
  <path class="cls-2" d="M47.19,47.48l2.13-5.36-.41-1.01h.98l2.59,6.37h-.98l-.5-1.24h-2.91l-.49,1.24h-.41ZM48.24,45.87h2.61l-1.32-3.25-1.29,3.25Z"/>
  <polygon class="cls-2" points="53.26 47.48 53.26 41.11 57.18 41.11 57.18 41.48 54.17 41.48 54.17 43.92 56.59 43.92 56.59 44.3 54.17 44.3 54.17 47.48 53.26 47.48"/>
  <polygon class="cls-2" points="57.54 41.11 58.55 41.11 60.73 46.48 61.48 44.6 60.06 41.11 61.06 41.11 61.97 43.35 62.86 41.11 63.26 41.11 62.18 43.86 63.24 46.48 65.37 41.11 65.78 41.11 63.45 46.98 63.65 47.48 62.65 47.48 61.68 45.1 60.94 46.98 61.14 47.48 60.14 47.48 57.54 41.11"/>
  <path class="cls-2" d="M64.87,47.48l2.13-5.36-.41-1.01h.98l2.59,6.37h-.98l-.5-1.24h-2.91l-.49,1.24h-.41ZM65.92,45.87h2.61l-1.32-3.25-1.29,3.25Z"/>
  <path class="cls-2" d="M73.67,41.11h1.19c1.99,0,2.77.98,2.77,2.15,0,.86-.42,1.48-1.15,1.83l1.35,2.39h-.99l-1.21-2.14c-.23.04-.46.06-.72.06h-.33v2.08h-.91v-6.37ZM74.58,45.02h0c1.12,0,1.9-.46,2.06-1.52.14-.94-.31-2.02-1.89-2.02h-.17v3.54Z"/>
  <polygon class="cls-2" points="78.69 47.48 78.69 41.11 82.61 41.11 82.61 41.48 79.59 41.48 79.59 43.92 82.01 43.92 82.01 44.3 79.59 44.3 79.59 47.11 82.61 47.11 82.61 47.48 78.69 47.48"/>
  <path class="cls-2" d="M83.72,46.13c.05.12.13.23.22.35.42.55,1,.76,1.46.66.63-.14.77-.71.55-1.37-.18-.53-.75-1.12-1.36-1.62-.42-.35-.93-.72-1.07-1.35-.27-1.16.74-1.72,1.26-1.79.75-.11,1.36.15,1.67.47l-.37.37c-.35-.35-.75-.54-1.09-.54-.15,0-.3.04-.41.12-.22.15-.28.44-.27.68.05.6.5.91,1.03,1.36,1.35,1.16,1.58,1.79,1.54,2.53-.03.46-.3.87-.65,1.16-.38.31-.86.43-1.34.44-.75.02-1.39-.33-1.74-.87l.6-.6Z"/>
  <path class="cls-2" d="M91.01,40.98c1.89-.02,3.42,1.35,3.42,3.31s-1.53,3.33-3.42,3.31c-1.9.02-3.43-1.35-3.43-3.31s1.53-3.33,3.43-3.31M90.49,47.19c.14.03.27.04.4.04,1.18,0,2.26-.96,2.53-2.5.3-1.72-.56-3.1-1.91-3.32-.14-.03-.27-.04-.41-.04-1.17,0-2.24.96-2.51,2.5-.31,1.72.57,3.1,1.9,3.32"/>
  <path class="cls-2" d="M95.39,41.11h1.19c1.99,0,2.77.98,2.77,2.15,0,.86-.42,1.48-1.15,1.83l1.35,2.39h-.99l-1.21-2.14c-.23.04-.46.06-.72.06h-.33v2.08h-.91v-6.37ZM96.3,45.02h0c1.12,0,1.9-.46,2.06-1.52.14-.94-.31-2.02-1.89-2.02h-.17v3.54Z"/>
  <polygon class="cls-2" points="99.59 41.48 99.59 41.11 104.5 41.11 104.5 41.48 102.5 41.48 102.5 47.48 101.6 47.48 101.6 41.48 99.59 41.48"/>
  <path class="cls-2" d="M43.89,32.09c.13,0,.23-.05.32-.14.09-.09.13-.21.13-.34s-.04-.25-.13-.34c-.08-.09-.19-.13-.31-.13s-.23.05-.33.14c-.09.1-.14.21-.14.33,0,.13.04.25.13.34.09.09.19.14.32.14"/>
  <path class="cls-2" d="M44.98,32.09c.13,0,.23-.05.32-.14.09-.09.13-.21.13-.34s-.04-.25-.13-.34c-.08-.09-.19-.13-.31-.13s-.23.05-.33.14c-.09.1-.14.21-.14.33,0,.13.04.25.13.34.09.09.19.14.32.14"/>
  <path class="cls-2" d="M46.05,33.57c-.91-.68-1.85-.81-2.81-.38-1.02.63-1.43,1.46-1.25,2.49.13.47.52.82,1.15,1.04h3.63v-3.69h-.72v.53ZM46.04,35.8c0,.09-.05.14-.11.15h-2.62c-.3-.02-.5-.18-.6-.47-.13-1.1.39-1.71,1.55-1.85,1.37.07,1.96.79,1.78,2.17"/>
  <path class="cls-2" d="M60.18,31.93c.13,0,.23-.05.32-.14.09-.09.13-.21.13-.34s-.04-.25-.13-.34c-.08-.09-.19-.13-.31-.13s-.23.05-.33.14c-.09.1-.14.21-.14.33,0,.13.04.25.13.34.09.09.19.14.32.14"/>
  <path class="cls-2" d="M70.91,35.95h-1.31c.32-.99.17-1.72-.45-2.19-.28-.18-.7-.28-1.26-.29h-4.04v-.47l-.72.27v2.68h-.76c.03-.08.05-.16.06-.24.13-1.98-.58-2.98-2.14-3-1.38.02-2.04,1.02-1.96,3.01.01.13.03.21.06.23h-6.43c.18-2.25-.77-3.29-2.83-3.1-1.51.44-2.06,1.49-1.65,3.14.18.36.44.61.78.74h2.88c-.12.35-.33.64-.62.86h-2.26l.42.78h1.68c.76-.09,1.26-.64,1.48-1.63h19.8v-5.66h-.72v4.88ZM51.27,35.87s0,.05,0,.08h-2.83c-.33-.2-.47-.49-.43-.86.03-.84.4-1.36,1.12-1.57,1.54-.18,2.26.61,2.13,2.34M61.75,35.71c0,.09-.02.17-.06.24h-2.64c-.03-.05-.06-.13-.07-.22-.11-1.59.32-2.37,1.29-2.32,1.19-.08,1.68.69,1.48,2.3M66.32,35.95h-2.48v-1.69h3.58c.46,0,.78,0,.94.04.17.03.32.12.46.29.14.16.19.38.17.64s-.1.45-.22.56-.36.17-.71.17h-1.74Z"/>
  <rect class="cls-2" x="72.35" y="31.07" width=".72" height="5.66"/>
  <path class="cls-2" d="M93.62,37.17c-.13,0-.23.05-.33.14-.09.1-.14.21-.14.33,0,.13.04.25.13.34.09.09.19.14.32.14s.23-.05.32-.14c.09-.09.13-.21.13-.34s-.04-.25-.13-.34c-.08-.09-.19-.13-.31-.13"/>
  <path class="cls-2" d="M97.16,33.21c.13,0,.23-.05.32-.14.09-.09.13-.21.13-.34s-.04-.25-.13-.34c-.08-.09-.19-.13-.31-.13s-.23.05-.33.14c-.09.1-.14.21-.14.33,0,.13.04.25.13.34.09.09.19.14.32.14"/>
  <path class="cls-2" d="M98.25,33.21c.13,0,.23-.05.32-.14.09-.09.13-.21.13-.34s-.04-.25-.13-.34c-.08-.09-.19-.13-.31-.13s-.23.05-.33.14c-.09.1-.14.21-.14.33,0,.13.04.25.13.34.09.09.19.14.32.14"/>
  <path class="cls-2" d="M100.29,33.03c.13,0,.23-.05.32-.14.09-.09.13-.21.13-.34s-.04-.25-.13-.34c-.08-.09-.19-.13-.31-.13s-.23.05-.33.14c-.09.1-.14.21-.14.33,0,.13.04.25.13.34.09.09.19.14.32.14"/>
  <path class="cls-2" d="M105.58,35.29c-.26-.86-.83-1.27-1.71-1.24-1.05.19-1.6.82-1.65,1.9h-1.49v-2.1h-.78v2.1h-1.24v-2.1h-.78v2.1h-1.77c.32-.98.17-1.72-.45-2.19-.28-.18-.7-.28-1.26-.28h-3.61l-.34.78h3.49c.46,0,.78,0,.94.04.17.03.32.12.46.29.14.16.19.38.17.64-.02.26-.1.45-.22.56s-.36.17-.71.17h-14.39s0,0,0,0c-.29-.2-.46-.53-.47-.88-.02-.86.43-1.38,1.33-1.55,1.05-.23,1.79.27,2.21,1.51h.84s-.35-.79-.35-.79c-.59-1.11-1.45-1.62-2.58-1.52-1.34.27-2.08,1.02-2.25,2.23,0,.38.09.72.25,1.01h-1.19c-.57.14-.95.4-1.14.78-.32.99-.17,1.72.45,2.19.28.18.7.28,1.26.29h3.61l.34-.78h-3.49c-.46,0-.78,0-.94-.04-.17-.03-.32-.12-.46-.29-.14-.16-.19-.38-.17-.64.02-.26.1-.45.22-.56.13-.11.36-.17.71-.17h23.62c.5,0,.77-.1.83-.31l.14-.82c.16-.42.37-.67.63-.73.27-.06.58,0,.95.18.23.25.32.55.25.87,0,.35-.17.51-.5.47l-1.08-.62-.08.74,1.32.86.22-.08c.76-.55,1.05-1.21.87-1.98"/>
</svg>