<?xml version="1.0" encoding="UTF-8"?>
<svg id="Layer_1" data-name="Layer 1" xmlns="http://www.w3.org/2000/svg" viewBox="0 0 102.55 33.52">
  <defs>
    <style>
      .cls-1 {
        fill: #fff;
      }
    </style>
  </defs>
  <polygon class="cls-1" points="27.48 21.96 22.14 3.93 14.51 3.93 9.16 21.96 9.16 3.93 .11 3.93 .11 29.18 14.15 29.18 18.29 14.5 18.36 14.5 22.5 29.18 36.53 29.18 36.53 3.93 27.48 3.93 27.48 21.96"/>
  <polygon class="cls-1" points="60.07 12.73 48.86 12.73 48.86 3.93 38.89 3.93 38.89 29.18 48.86 29.18 48.86 19.1 60.07 19.1 60.07 29.18 70.04 29.18 70.04 3.93 60.07 3.93 60.07 12.73"/>
  <polygon class="cls-1" points="86.24 13.83 81.43 3.93 70.04 3.93 81.25 22.07 81.25 29.18 91.22 29.18 91.22 22.07 102.43 3.93 91.05 3.93 86.24 13.83"/>
</svg>